<svg xmlns="http://www.w3.org/2000/svg" version="1.1" xmlns:xlink="http://www.w3.org/1999/xlink" xmlns:svgjs="http://svgjs.dev/svgjs" width="1440" height="560" preserveAspectRatio="none" viewBox="0 0 1440 560"><g mask="url(&quot;#SvgjsMask1010&quot;)" fill="none"><rect width="1440" height="560" x="0" y="0" fill="rgba(0, 0, 0, 1)"></rect><path d="M-109.63 412.16L-109.63 412.16" stroke="rgba(125, 0, 39, 1)" stroke-width="1.5"></path><path d="M-109.63 412.16L-48.4 490.56" stroke="rgba(125, 0, 39, 1)" stroke-width="1.5"></path><path d="M-109.63 412.16L43.58 542.43" stroke="rgba(125, 0, 39, 1)" stroke-width="1.5"></path><path d="M-109.63 412.16L101.92 405.01" stroke="rgba(125, 0, 39, 1)" stroke-width="1.5"></path><path d="M-109.63 412.16L-78.73 661.83" stroke="rgba(125, 0, 39, 1)" stroke-width="1.5"></path><path d="M-109.63 412.16L72.35 690.91" stroke="rgba(125, 0, 39, 1)" stroke-width="1.5"></path><path d="M-109.63 412.16L209.91 506.83" stroke="rgba(125, 0, 39, 1)" stroke-width="1.5"></path><path d="M-48.4 490.56L-48.4 490.56" stroke="rgba(125, 0, 39, 1)" stroke-width="1.5"></path><path d="M-48.4 490.56L43.58 542.43" stroke="rgba(125, 0, 39, 1)" stroke-width="1.5"></path><path d="M-78.73 661.83L-78.73 661.83" stroke="rgba(125, 0, 39, 1)" stroke-width="1.5"></path><path d="M-78.73 661.83L72.35 690.91" stroke="rgba(125, 0, 39, 1)" stroke-width="1.5"></path><path d="M-78.73 661.83L43.58 542.43" stroke="rgba(125, 0, 39, 1)" stroke-width="1.5"></path><path d="M-78.73 661.83L-48.4 490.56" stroke="rgba(125, 0, 39, 1)" stroke-width="1.5"></path><path d="M101.92 405.01L101.92 405.01" stroke="rgba(125, 0, 39, 1)" stroke-width="1.5"></path><path d="M101.92 405.01L209.91 506.83" stroke="rgba(125, 0, 39, 1)" stroke-width="1.5"></path><path d="M101.92 405.01L249.99 390.76" stroke="rgba(125, 0, 39, 1)" stroke-width="1.5"></path><path d="M101.92 405.01L43.58 542.43" stroke="rgba(125, 0, 39, 1)" stroke-width="1.5"></path><path d="M101.92 405.01L-48.4 490.56" stroke="rgba(125, 0, 39, 1)" stroke-width="1.5"></path><path d="M43.58 542.43L43.58 542.43" stroke="rgba(125, 0, 39, 1)" stroke-width="1.5"></path><path d="M43.58 542.43L72.35 690.91" stroke="rgba(125, 0, 39, 1)" stroke-width="1.5"></path><path d="M43.58 542.43L209.91 506.83" stroke="rgba(125, 0, 39, 1)" stroke-width="1.5"></path><path d="M72.35 690.91L72.35 690.91" stroke="rgba(125, 0, 39, 1)" stroke-width="1.5"></path><path d="M72.35 690.91L212.61 666.87" stroke="rgba(125, 0, 39, 1)" stroke-width="1.5"></path><path d="M72.35 690.91L209.91 506.83" stroke="rgba(125, 0, 39, 1)" stroke-width="1.5"></path><path d="M249.99 390.76L249.99 390.76" stroke="rgba(125, 0, 39, 1)" stroke-width="1.5"></path><path d="M249.99 390.76L209.91 506.83" stroke="rgba(125, 0, 39, 1)" stroke-width="1.5"></path><path d="M249.99 390.76L394.87 544.47" stroke="rgba(125, 0, 39, 1)" stroke-width="1.5"></path><path d="M249.99 390.76L490.05 344.57" stroke="rgba(125, 0, 39, 1)" stroke-width="1.5"></path><path d="M209.91 506.83L209.91 506.83" stroke="rgba(125, 0, 39, 1)" stroke-width="1.5"></path><path d="M209.91 506.83L212.61 666.87" stroke="rgba(125, 0, 39, 1)" stroke-width="1.5"></path><path d="M212.61 666.87L212.61 666.87" stroke="rgba(125, 0, 39, 1)" stroke-width="1.5"></path><path d="M212.61 666.87L349.88 678.83" stroke="rgba(125, 0, 39, 1)" stroke-width="1.5"></path><path d="M394.87 544.47L394.87 544.47" stroke="rgba(125, 0, 39, 1)" stroke-width="1.5"></path><path d="M394.87 544.47L488.75 559.9" stroke="rgba(125, 0, 39, 1)" stroke-width="1.5"></path><path d="M394.87 544.47L349.88 678.83" stroke="rgba(125, 0, 39, 1)" stroke-width="1.5"></path><path d="M394.87 544.47L209.91 506.83" stroke="rgba(125, 0, 39, 1)" stroke-width="1.5"></path><path d="M394.87 544.47L487.67 711.93" stroke="rgba(125, 0, 39, 1)" stroke-width="1.5"></path><path d="M349.88 678.83L349.88 678.83" stroke="rgba(125, 0, 39, 1)" stroke-width="1.5"></path><path d="M490.05 344.57L490.05 344.57" stroke="rgba(125, 0, 39, 1)" stroke-width="1.5"></path><path d="M490.05 344.57L694.28 409.71" stroke="rgba(125, 0, 39, 1)" stroke-width="1.5"></path><path d="M490.05 344.57L488.75 559.9" stroke="rgba(125, 0, 39, 1)" stroke-width="1.5"></path><path d="M490.05 344.57L394.87 544.47" stroke="rgba(125, 0, 39, 1)" stroke-width="1.5"></path><path d="M488.75 559.9L488.75 559.9" stroke="rgba(125, 0, 39, 1)" stroke-width="1.5"></path><path d="M488.75 559.9L487.67 711.93" stroke="rgba(125, 0, 39, 1)" stroke-width="1.5"></path><path d="M488.75 559.9L349.88 678.83" stroke="rgba(125, 0, 39, 1)" stroke-width="1.5"></path><path d="M488.75 559.9L683.46 639.7" stroke="rgba(125, 0, 39, 1)" stroke-width="1.5"></path><path d="M487.67 711.93L487.67 711.93" stroke="rgba(125, 0, 39, 1)" stroke-width="1.5"></path><path d="M487.67 711.93L349.88 678.83" stroke="rgba(125, 0, 39, 1)" stroke-width="1.5"></path><path d="M694.28 409.71L694.28 409.71" stroke="rgba(125, 0, 39, 1)" stroke-width="1.5"></path><path d="M694.28 409.71L804.82 363.37" stroke="rgba(125, 0, 39, 1)" stroke-width="1.5"></path><path d="M694.28 409.71L699.09 537.4" stroke="rgba(125, 0, 39, 1)" stroke-width="1.5"></path><path d="M694.28 409.71L841.9 515.59" stroke="rgba(125, 0, 39, 1)" stroke-width="1.5"></path><path d="M699.09 537.4L699.09 537.4" stroke="rgba(125, 0, 39, 1)" stroke-width="1.5"></path><path d="M699.09 537.4L683.46 639.7" stroke="rgba(125, 0, 39, 1)" stroke-width="1.5"></path><path d="M683.46 639.7L683.46 639.7" stroke="rgba(125, 0, 39, 1)" stroke-width="1.5"></path><path d="M683.46 639.7L810.81 710.83" stroke="rgba(125, 0, 39, 1)" stroke-width="1.5"></path><path d="M683.46 639.7L841.9 515.59" stroke="rgba(125, 0, 39, 1)" stroke-width="1.5"></path><path d="M683.46 639.7L487.67 711.93" stroke="rgba(125, 0, 39, 1)" stroke-width="1.5"></path><path d="M824.13 195.92L824.13 195.92" stroke="rgba(125, 0, 39, 1)" stroke-width="1.5"></path><path d="M824.13 195.92L804.82 363.37" stroke="rgba(125, 0, 39, 1)" stroke-width="1.5"></path><path d="M824.13 195.92L993.19 217.12" stroke="rgba(125, 0, 39, 1)" stroke-width="1.5"></path><path d="M824.13 195.92L1001.59 101.34" stroke="rgba(125, 0, 39, 1)" stroke-width="1.5"></path><path d="M804.82 363.37L804.82 363.37" stroke="rgba(125, 0, 39, 1)" stroke-width="1.5"></path><path d="M804.82 363.37L841.9 515.59" stroke="rgba(125, 0, 39, 1)" stroke-width="1.5"></path><path d="M804.82 363.37L974.18 380.79" stroke="rgba(125, 0, 39, 1)" stroke-width="1.5"></path><path d="M804.82 363.37L699.09 537.4" stroke="rgba(125, 0, 39, 1)" stroke-width="1.5"></path><path d="M841.9 515.59L841.9 515.59" stroke="rgba(125, 0, 39, 1)" stroke-width="1.5"></path><path d="M841.9 515.59L699.09 537.4" stroke="rgba(125, 0, 39, 1)" stroke-width="1.5"></path><path d="M810.81 710.83L810.81 710.83" stroke="rgba(125, 0, 39, 1)" stroke-width="1.5"></path><path d="M810.81 710.83L948.72 697.02" stroke="rgba(125, 0, 39, 1)" stroke-width="1.5"></path><path d="M810.81 710.83L841.9 515.59" stroke="rgba(125, 0, 39, 1)" stroke-width="1.5"></path><path d="M810.81 710.83L699.09 537.4" stroke="rgba(125, 0, 39, 1)" stroke-width="1.5"></path><path d="M810.81 710.83L1000.53 491.39" stroke="rgba(125, 0, 39, 1)" stroke-width="1.5"></path><path d="M988.73 -52.47L988.73 -52.47" stroke="rgba(125, 0, 39, 1)" stroke-width="1.5"></path><path d="M988.73 -52.47L1001.59 101.34" stroke="rgba(125, 0, 39, 1)" stroke-width="1.5"></path><path d="M988.73 -52.47L1142.35 -68.11" stroke="rgba(125, 0, 39, 1)" stroke-width="1.5"></path><path d="M988.73 -52.47L1118.72 46.3" stroke="rgba(125, 0, 39, 1)" stroke-width="1.5"></path><path d="M1001.59 101.34L1001.59 101.34" stroke="rgba(125, 0, 39, 1)" stroke-width="1.5"></path><path d="M1001.59 101.34L993.19 217.12" stroke="rgba(125, 0, 39, 1)" stroke-width="1.5"></path><path d="M1001.59 101.34L1118.72 46.3" stroke="rgba(125, 0, 39, 1)" stroke-width="1.5"></path><path d="M993.19 217.12L993.19 217.12" stroke="rgba(125, 0, 39, 1)" stroke-width="1.5"></path><path d="M993.19 217.12L1153.35 248.38" stroke="rgba(125, 0, 39, 1)" stroke-width="1.5"></path><path d="M974.18 380.79L974.18 380.79" stroke="rgba(125, 0, 39, 1)" stroke-width="1.5"></path><path d="M974.18 380.79L1000.53 491.39" stroke="rgba(125, 0, 39, 1)" stroke-width="1.5"></path><path d="M974.18 380.79L1128.82 376.95" stroke="rgba(125, 0, 39, 1)" stroke-width="1.5"></path><path d="M974.18 380.79L993.19 217.12" stroke="rgba(125, 0, 39, 1)" stroke-width="1.5"></path><path d="M974.18 380.79L1107.32 500.06" stroke="rgba(125, 0, 39, 1)" stroke-width="1.5"></path><path d="M1000.53 491.39L1000.53 491.39" stroke="rgba(125, 0, 39, 1)" stroke-width="1.5"></path><path d="M1000.53 491.39L1107.32 500.06" stroke="rgba(125, 0, 39, 1)" stroke-width="1.5"></path><path d="M1000.53 491.39L841.9 515.59" stroke="rgba(125, 0, 39, 1)" stroke-width="1.5"></path><path d="M1000.53 491.39L1128.82 376.95" stroke="rgba(125, 0, 39, 1)" stroke-width="1.5"></path><path d="M948.72 697.02L948.72 697.02" stroke="rgba(125, 0, 39, 1)" stroke-width="1.5"></path><path d="M948.72 697.02L1129.46 703.24" stroke="rgba(125, 0, 39, 1)" stroke-width="1.5"></path><path d="M1142.35 -68.11L1142.35 -68.11" stroke="rgba(125, 0, 39, 1)" stroke-width="1.5"></path><path d="M1142.35 -68.11L1118.72 46.3" stroke="rgba(125, 0, 39, 1)" stroke-width="1.5"></path><path d="M1142.35 -68.11L1283.96 -107.66" stroke="rgba(125, 0, 39, 1)" stroke-width="1.5"></path><path d="M1142.35 -68.11L1238.63 44.44" stroke="rgba(125, 0, 39, 1)" stroke-width="1.5"></path><path d="M1118.72 46.3L1118.72 46.3" stroke="rgba(125, 0, 39, 1)" stroke-width="1.5"></path><path d="M1118.72 46.3L1238.63 44.44" stroke="rgba(125, 0, 39, 1)" stroke-width="1.5"></path><path d="M1153.35 248.38L1153.35 248.38" stroke="rgba(125, 0, 39, 1)" stroke-width="1.5"></path><path d="M1153.35 248.38L1247.59 193.55" stroke="rgba(125, 0, 39, 1)" stroke-width="1.5"></path><path d="M1153.35 248.38L1128.82 376.95" stroke="rgba(125, 0, 39, 1)" stroke-width="1.5"></path><path d="M1153.35 248.38L1255.58 395.52" stroke="rgba(125, 0, 39, 1)" stroke-width="1.5"></path><path d="M1153.35 248.38L1118.72 46.3" stroke="rgba(125, 0, 39, 1)" stroke-width="1.5"></path><path d="M1128.82 376.95L1128.82 376.95" stroke="rgba(125, 0, 39, 1)" stroke-width="1.5"></path><path d="M1128.82 376.95L1107.32 500.06" stroke="rgba(125, 0, 39, 1)" stroke-width="1.5"></path><path d="M1128.82 376.95L1255.58 395.52" stroke="rgba(125, 0, 39, 1)" stroke-width="1.5"></path><path d="M1128.82 376.95L1276.99 523.93" stroke="rgba(125, 0, 39, 1)" stroke-width="1.5"></path><path d="M1107.32 500.06L1107.32 500.06" stroke="rgba(125, 0, 39, 1)" stroke-width="1.5"></path><path d="M1107.32 500.06L1276.99 523.93" stroke="rgba(125, 0, 39, 1)" stroke-width="1.5"></path><path d="M1107.32 500.06L1255.58 395.52" stroke="rgba(125, 0, 39, 1)" stroke-width="1.5"></path><path d="M1107.32 500.06L1129.46 703.24" stroke="rgba(125, 0, 39, 1)" stroke-width="1.5"></path><path d="M1129.46 703.24L1129.46 703.24" stroke="rgba(125, 0, 39, 1)" stroke-width="1.5"></path><path d="M1129.46 703.24L1277.1 706.71" stroke="rgba(125, 0, 39, 1)" stroke-width="1.5"></path><path d="M1129.46 703.24L1276.99 523.93" stroke="rgba(125, 0, 39, 1)" stroke-width="1.5"></path><path d="M1283.96 -107.66L1283.96 -107.66" stroke="rgba(125, 0, 39, 1)" stroke-width="1.5"></path><path d="M1283.96 -107.66L1422.94 -62.27" stroke="rgba(125, 0, 39, 1)" stroke-width="1.5"></path><path d="M1283.96 -107.66L1238.63 44.44" stroke="rgba(125, 0, 39, 1)" stroke-width="1.5"></path><path d="M1283.96 -107.66L1118.72 46.3" stroke="rgba(125, 0, 39, 1)" stroke-width="1.5"></path><path d="M1238.63 44.44L1238.63 44.44" stroke="rgba(125, 0, 39, 1)" stroke-width="1.5"></path><path d="M1238.63 44.44L1247.59 193.55" stroke="rgba(125, 0, 39, 1)" stroke-width="1.5"></path><path d="M1247.59 193.55L1247.59 193.55" stroke="rgba(125, 0, 39, 1)" stroke-width="1.5"></path><path d="M1247.59 193.55L1406.36 245.38" stroke="rgba(125, 0, 39, 1)" stroke-width="1.5"></path><path d="M1247.59 193.55L1390.65 99.14" stroke="rgba(125, 0, 39, 1)" stroke-width="1.5"></path><path d="M1247.59 193.55L1118.72 46.3" stroke="rgba(125, 0, 39, 1)" stroke-width="1.5"></path><path d="M1247.59 193.55L1255.58 395.52" stroke="rgba(125, 0, 39, 1)" stroke-width="1.5"></path><path d="M1255.58 395.52L1255.58 395.52" stroke="rgba(125, 0, 39, 1)" stroke-width="1.5"></path><path d="M1255.58 395.52L1276.99 523.93" stroke="rgba(125, 0, 39, 1)" stroke-width="1.5"></path><path d="M1276.99 523.93L1276.99 523.93" stroke="rgba(125, 0, 39, 1)" stroke-width="1.5"></path><path d="M1276.99 523.93L1415.98 493.41" stroke="rgba(125, 0, 39, 1)" stroke-width="1.5"></path><path d="M1276.99 523.93L1388.73 648.44" stroke="rgba(125, 0, 39, 1)" stroke-width="1.5"></path><path d="M1276.99 523.93L1277.1 706.71" stroke="rgba(125, 0, 39, 1)" stroke-width="1.5"></path><path d="M1277.1 706.71L1277.1 706.71" stroke="rgba(125, 0, 39, 1)" stroke-width="1.5"></path><path d="M1277.1 706.71L1388.73 648.44" stroke="rgba(125, 0, 39, 1)" stroke-width="1.5"></path><path d="M1277.1 706.71L1415.98 493.41" stroke="rgba(125, 0, 39, 1)" stroke-width="1.5"></path><path d="M1422.94 -62.27L1422.94 -62.27" stroke="rgba(125, 0, 39, 1)" stroke-width="1.5"></path><path d="M1422.94 -62.27L1390.65 99.14" stroke="rgba(125, 0, 39, 1)" stroke-width="1.5"></path><path d="M1390.65 99.14L1390.65 99.14" stroke="rgba(125, 0, 39, 1)" stroke-width="1.5"></path><path d="M1390.65 99.14L1406.36 245.38" stroke="rgba(125, 0, 39, 1)" stroke-width="1.5"></path><path d="M1390.65 99.14L1238.63 44.44" stroke="rgba(125, 0, 39, 1)" stroke-width="1.5"></path><path d="M1390.65 99.14L1566.63 93.94" stroke="rgba(125, 0, 39, 1)" stroke-width="1.5"></path><path d="M1406.36 245.38L1406.36 245.38" stroke="rgba(125, 0, 39, 1)" stroke-width="1.5"></path><path d="M1406.36 245.38L1412.62 395.32" stroke="rgba(125, 0, 39, 1)" stroke-width="1.5"></path><path d="M1412.62 395.32L1412.62 395.32" stroke="rgba(125, 0, 39, 1)" stroke-width="1.5"></path><path d="M1412.62 395.32L1415.98 493.41" stroke="rgba(125, 0, 39, 1)" stroke-width="1.5"></path><path d="M1415.98 493.41L1415.98 493.41" stroke="rgba(125, 0, 39, 1)" stroke-width="1.5"></path><path d="M1388.73 648.44L1388.73 648.44" stroke="rgba(125, 0, 39, 1)" stroke-width="1.5"></path><path d="M1388.73 648.44L1415.98 493.41" stroke="rgba(125, 0, 39, 1)" stroke-width="1.5"></path><path d="M1595.19 -109.75L1595.19 -109.75" stroke="rgba(125, 0, 39, 1)" stroke-width="1.5"></path><path d="M1595.19 -109.75L1422.94 -62.27" stroke="rgba(125, 0, 39, 1)" stroke-width="1.5"></path><path d="M1595.19 -109.75L1566.63 93.94" stroke="rgba(125, 0, 39, 1)" stroke-width="1.5"></path><path d="M1566.63 93.94L1566.63 93.94" stroke="rgba(125, 0, 39, 1)" stroke-width="1.5"></path><path d="M1566.63 93.94L1600.64 209.48" stroke="rgba(125, 0, 39, 1)" stroke-width="1.5"></path><path d="M1566.63 93.94L1422.94 -62.27" stroke="rgba(125, 0, 39, 1)" stroke-width="1.5"></path><path d="M1566.63 93.94L1406.36 245.38" stroke="rgba(125, 0, 39, 1)" stroke-width="1.5"></path><path d="M1600.64 209.48L1600.64 209.48" stroke="rgba(125, 0, 39, 1)" stroke-width="1.5"></path><path d="M1600.64 209.48L1566.06 363.59" stroke="rgba(125, 0, 39, 1)" stroke-width="1.5"></path><path d="M1600.64 209.48L1406.36 245.38" stroke="rgba(125, 0, 39, 1)" stroke-width="1.5"></path><path d="M1600.64 209.48L1390.65 99.14" stroke="rgba(125, 0, 39, 1)" stroke-width="1.5"></path><path d="M1600.64 209.48L1412.62 395.32" stroke="rgba(125, 0, 39, 1)" stroke-width="1.5"></path><path d="M1600.64 209.48L1608.54 502.84" stroke="rgba(125, 0, 39, 1)" stroke-width="1.5"></path><path d="M1566.06 363.59L1566.06 363.59" stroke="rgba(125, 0, 39, 1)" stroke-width="1.5"></path><path d="M1566.06 363.59L1608.54 502.84" stroke="rgba(125, 0, 39, 1)" stroke-width="1.5"></path><path d="M1566.06 363.59L1412.62 395.32" stroke="rgba(125, 0, 39, 1)" stroke-width="1.5"></path><path d="M1608.54 502.84L1608.54 502.84" stroke="rgba(125, 0, 39, 1)" stroke-width="1.5"></path><path d="M1608.54 502.84L1590.19 688.69" stroke="rgba(125, 0, 39, 1)" stroke-width="1.5"></path><path d="M1608.54 502.84L1415.98 493.41" stroke="rgba(125, 0, 39, 1)" stroke-width="1.5"></path><path d="M1590.19 688.69L1590.19 688.69" stroke="rgba(125, 0, 39, 1)" stroke-width="1.5"></path><circle r="5" cx="-109.63" cy="412.16" fill="rgba(125, 0, 39, 1)"></circle><circle r="5" cx="-48.4" cy="490.56" fill="rgba(125, 0, 39, 1)"></circle><circle r="5" cx="-78.73" cy="661.83" fill="rgba(125, 0, 39, 1)"></circle><circle r="5" cx="101.92" cy="405.01" fill="rgba(125, 0, 39, 1)"></circle><circle r="5" cx="43.58" cy="542.43" fill="rgba(125, 0, 39, 1)"></circle><circle r="5" cx="72.35" cy="690.91" fill="rgba(125, 0, 39, 1)"></circle><circle r="5" cx="249.99" cy="390.76" fill="rgba(125, 0, 39, 1)"></circle><circle r="5" cx="209.91" cy="506.83" fill="rgba(125, 0, 39, 1)"></circle><circle r="5" cx="212.61" cy="666.87" fill="rgba(125, 0, 39, 1)"></circle><circle r="5" cx="394.87" cy="544.47" fill="rgba(125, 0, 39, 1)"></circle><circle r="5" cx="349.88" cy="678.83" fill="rgba(125, 0, 39, 1)"></circle><circle r="5" cx="490.05" cy="344.57" fill="rgba(125, 0, 39, 1)"></circle><circle r="5" cx="488.75" cy="559.9" fill="rgba(125, 0, 39, 1)"></circle><circle r="5" cx="487.67" cy="711.93" fill="rgba(125, 0, 39, 1)"></circle><circle r="5" cx="694.28" cy="409.71" fill="rgba(125, 0, 39, 1)"></circle><circle r="5" cx="699.09" cy="537.4" fill="rgba(125, 0, 39, 1)"></circle><circle r="5" cx="683.46" cy="639.7" fill="rgba(125, 0, 39, 1)"></circle><circle r="5" cx="824.13" cy="195.92" fill="rgba(125, 0, 39, 1)"></circle><circle r="5" cx="804.82" cy="363.37" fill="rgba(125, 0, 39, 1)"></circle><circle r="5" cx="841.9" cy="515.59" fill="rgba(125, 0, 39, 1)"></circle><circle r="5" cx="810.81" cy="710.83" fill="rgba(125, 0, 39, 1)"></circle><circle r="5" cx="988.73" cy="-52.47" fill="rgba(125, 0, 39, 1)"></circle><circle r="5" cx="1001.59" cy="101.34" fill="rgba(125, 0, 39, 1)"></circle><circle r="5" cx="993.19" cy="217.12" fill="rgba(125, 0, 39, 1)"></circle><circle r="5" cx="974.18" cy="380.79" fill="rgba(125, 0, 39, 1)"></circle><circle r="5" cx="1000.53" cy="491.39" fill="rgba(125, 0, 39, 1)"></circle><circle r="5" cx="948.72" cy="697.02" fill="rgba(125, 0, 39, 1)"></circle><circle r="5" cx="1142.35" cy="-68.11" fill="rgba(125, 0, 39, 1)"></circle><circle r="5" cx="1118.72" cy="46.3" fill="rgba(125, 0, 39, 1)"></circle><circle r="5" cx="1153.35" cy="248.38" fill="rgba(125, 0, 39, 1)"></circle><circle r="5" cx="1128.82" cy="376.95" fill="rgba(125, 0, 39, 1)"></circle><circle r="5" cx="1107.32" cy="500.06" fill="rgba(125, 0, 39, 1)"></circle><circle r="5" cx="1129.46" cy="703.24" fill="rgba(125, 0, 39, 1)"></circle><circle r="5" cx="1283.96" cy="-107.66" fill="rgba(125, 0, 39, 1)"></circle><circle r="5" cx="1238.63" cy="44.44" fill="rgba(125, 0, 39, 1)"></circle><circle r="5" cx="1247.59" cy="193.55" fill="rgba(125, 0, 39, 1)"></circle><circle r="5" cx="1255.58" cy="395.52" fill="rgba(125, 0, 39, 1)"></circle><circle r="5" cx="1276.99" cy="523.93" fill="rgba(125, 0, 39, 1)"></circle><circle r="5" cx="1277.1" cy="706.71" fill="rgba(125, 0, 39, 1)"></circle><circle r="5" cx="1422.94" cy="-62.27" fill="rgba(125, 0, 39, 1)"></circle><circle r="5" cx="1390.65" cy="99.14" fill="rgba(125, 0, 39, 1)"></circle><circle r="5" cx="1406.36" cy="245.38" fill="rgba(125, 0, 39, 1)"></circle><circle r="5" cx="1412.62" cy="395.32" fill="rgba(125, 0, 39, 1)"></circle><circle r="5" cx="1415.98" cy="493.41" fill="rgba(125, 0, 39, 1)"></circle><circle r="5" cx="1388.73" cy="648.44" fill="rgba(125, 0, 39, 1)"></circle><circle r="5" cx="1595.19" cy="-109.75" fill="rgba(125, 0, 39, 1)"></circle><circle r="5" cx="1566.63" cy="93.94" fill="rgba(125, 0, 39, 1)"></circle><circle r="5" cx="1600.64" cy="209.48" fill="rgba(125, 0, 39, 1)"></circle><circle r="5" cx="1566.06" cy="363.59" fill="rgba(125, 0, 39, 1)"></circle><circle r="5" cx="1608.54" cy="502.84" fill="rgba(125, 0, 39, 1)"></circle><circle r="5" cx="1590.19" cy="688.69" fill="rgba(125, 0, 39, 1)"></circle><path d="M393.64 663.49L393.64 663.49" stroke="hsl(341.4, 100%, 65%)" stroke-width="1.5"></path><path d="M393.64 663.49L495.97 651.12" stroke="hsl(341.4, 100%, 65%)" stroke-width="1.5"></path><path d="M393.64 663.49L525.68 502.22" stroke="hsl(341.4, 100%, 65%)" stroke-width="1.5"></path><path d="M393.64 663.49L209.32 517.88" stroke="hsl(341.4, 100%, 65%)" stroke-width="1.5"></path><path d="M393.64 663.49L649.02 695.63" stroke="hsl(341.4, 100%, 65%)" stroke-width="1.5"></path><path d="M393.64 663.49L69.61 712.4" stroke="hsl(341.4, 100%, 65%)" stroke-width="1.5"></path><path d="M836.65 650.21L836.65 650.21" stroke="hsl(341.4, 100%, 65%)" stroke-width="1.5"></path><path d="M836.65 650.21L820.06 558.47" stroke="hsl(341.4, 100%, 65%)" stroke-width="1.5"></path><path d="M836.65 650.21L981.49 675.69" stroke="hsl(341.4, 100%, 65%)" stroke-width="1.5"></path><path d="M836.65 650.21L939.84 516.03" stroke="hsl(341.4, 100%, 65%)" stroke-width="1.5"></path><path d="M836.65 650.21L649.02 695.63" stroke="hsl(341.4, 100%, 65%)" stroke-width="1.5"></path><path d="M1130.65 255.91L1130.65 255.91" stroke="hsl(341.4, 100%, 65%)" stroke-width="1.5"></path><path d="M1130.65 255.91L1110.09 362.79" stroke="hsl(341.4, 100%, 65%)" stroke-width="1.5"></path><path d="M1130.65 255.91L1262.25 253.59" stroke="hsl(341.4, 100%, 65%)" stroke-width="1.5"></path><path d="M1130.65 255.91L1151.33 112.21" stroke="hsl(341.4, 100%, 65%)" stroke-width="1.5"></path><path d="M1137.09 661.69L1137.09 661.69" stroke="hsl(341.4, 100%, 65%)" stroke-width="1.5"></path><path d="M1137.09 661.69L1247 690.65" stroke="hsl(341.4, 100%, 65%)" stroke-width="1.5"></path><path d="M1137.09 661.69L981.49 675.69" stroke="hsl(341.4, 100%, 65%)" stroke-width="1.5"></path><path d="M1137.09 661.69L1097.62 502.66" stroke="hsl(341.4, 100%, 65%)" stroke-width="1.5"></path><path d="M1137.09 661.69L1301.04 517.82" stroke="hsl(341.4, 100%, 65%)" stroke-width="1.5"></path><path d="M1301.04 517.82L1301.04 517.82" stroke="hsl(341.4, 100%, 65%)" stroke-width="1.5"></path><path d="M1301.04 517.82L1404.83 539.65" stroke="hsl(341.4, 100%, 65%)" stroke-width="1.5"></path><path d="M1301.04 517.82L1271.99 350.12" stroke="hsl(341.4, 100%, 65%)" stroke-width="1.5"></path><path d="M1301.04 517.82L1401.22 373.09" stroke="hsl(341.4, 100%, 65%)" stroke-width="1.5"></path><path d="M1247 690.65L1247 690.65" stroke="hsl(341.4, 100%, 65%)" stroke-width="1.5"></path><path d="M1247 690.65L1408.85 702.23" stroke="hsl(341.4, 100%, 65%)" stroke-width="1.5"></path><path d="M1247 690.65L1301.04 517.82" stroke="hsl(341.4, 100%, 65%)" stroke-width="1.5"></path><path d="M1388.68 60.97L1388.68 60.97" stroke="hsl(341.4, 100%, 65%)" stroke-width="1.5"></path><path d="M1388.68 60.97L1286.65 43.5" stroke="hsl(341.4, 100%, 65%)" stroke-width="1.5"></path><path d="M1388.68 60.97L1393.01 -81.83" stroke="hsl(341.4, 100%, 65%)" stroke-width="1.5"></path><path d="M1388.68 60.97L1449.08 201.09" stroke="hsl(341.4, 100%, 65%)" stroke-width="1.5"></path><path d="M1388.68 60.97L1274.14 -61.51" stroke="hsl(341.4, 100%, 65%)" stroke-width="1.5"></path><path d="M1388.68 60.97L1562.55 99.66" stroke="hsl(341.4, 100%, 65%)" stroke-width="1.5"></path><path d="M1404.83 539.65L1404.83 539.65" stroke="hsl(341.4, 100%, 65%)" stroke-width="1.5"></path><path d="M1404.83 539.65L1408.85 702.23" stroke="hsl(341.4, 100%, 65%)" stroke-width="1.5"></path><path d="M1408.85 702.23L1408.85 702.23" stroke="hsl(341.4, 100%, 65%)" stroke-width="1.5"></path><path d="M1408.85 702.23L1301.04 517.82" stroke="hsl(341.4, 100%, 65%)" stroke-width="1.5"></path><path d="M1408.85 702.23L1591.35 507.78" stroke="hsl(341.4, 100%, 65%)" stroke-width="1.5"></path><path d="M1408.85 702.23L1137.09 661.69" stroke="hsl(341.4, 100%, 65%)" stroke-width="1.5"></path><path d="M1408.85 702.23L1401.22 373.09" stroke="hsl(341.4, 100%, 65%)" stroke-width="1.5"></path><path d="M1591.35 507.78L1591.35 507.78" stroke="hsl(341.4, 100%, 65%)" stroke-width="1.5"></path><path d="M1591.35 507.78L1555.12 383.55" stroke="hsl(341.4, 100%, 65%)" stroke-width="1.5"></path><path d="M1591.35 507.78L1404.83 539.65" stroke="hsl(341.4, 100%, 65%)" stroke-width="1.5"></path><path d="M1591.35 507.78L1401.22 373.09" stroke="hsl(341.4, 100%, 65%)" stroke-width="1.5"></path><path d="M1591.35 507.78L1301.04 517.82" stroke="hsl(341.4, 100%, 65%)" stroke-width="1.5"></path><path d="M1591.35 507.78L1561.51 199.6" stroke="hsl(341.4, 100%, 65%)" stroke-width="1.5"></path><path d="M-110.14 539.81L-110.14 539.81" stroke="hsl(341.4, 100%, 65%)" stroke-width="1.5"></path><path d="M-110.14 539.81L-49.22 701.6" stroke="hsl(341.4, 100%, 65%)" stroke-width="1.5"></path><path d="M-110.14 539.81L69.61 712.4" stroke="hsl(341.4, 100%, 65%)" stroke-width="1.5"></path><path d="M-110.14 539.81L209.32 517.88" stroke="hsl(341.4, 100%, 65%)" stroke-width="1.5"></path><path d="M-110.14 539.81L393.64 663.49" stroke="hsl(341.4, 100%, 65%)" stroke-width="1.5"></path><path d="M-49.22 701.6L-49.22 701.6" stroke="hsl(341.4, 100%, 65%)" stroke-width="1.5"></path><path d="M-49.22 701.6L69.61 712.4" stroke="hsl(341.4, 100%, 65%)" stroke-width="1.5"></path><path d="M69.61 712.4L69.61 712.4" stroke="hsl(341.4, 100%, 65%)" stroke-width="1.5"></path><path d="M69.61 712.4L209.32 517.88" stroke="hsl(341.4, 100%, 65%)" stroke-width="1.5"></path><path d="M209.32 517.88L209.32 517.88" stroke="hsl(341.4, 100%, 65%)" stroke-width="1.5"></path><path d="M209.32 517.88L495.97 651.12" stroke="hsl(341.4, 100%, 65%)" stroke-width="1.5"></path><path d="M209.32 517.88L525.68 502.22" stroke="hsl(341.4, 100%, 65%)" stroke-width="1.5"></path><path d="M525.68 502.22L525.68 502.22" stroke="hsl(341.4, 100%, 65%)" stroke-width="1.5"></path><path d="M525.68 502.22L495.97 651.12" stroke="hsl(341.4, 100%, 65%)" stroke-width="1.5"></path><path d="M525.68 502.22L649.02 695.63" stroke="hsl(341.4, 100%, 65%)" stroke-width="1.5"></path><path d="M495.97 651.12L495.97 651.12" stroke="hsl(341.4, 100%, 65%)" stroke-width="1.5"></path><path d="M495.97 651.12L649.02 695.63" stroke="hsl(341.4, 100%, 65%)" stroke-width="1.5"></path><path d="M649.02 695.63L649.02 695.63" stroke="hsl(341.4, 100%, 65%)" stroke-width="1.5"></path><path d="M649.02 695.63L820.06 558.47" stroke="hsl(341.4, 100%, 65%)" stroke-width="1.5"></path><path d="M838.69 346.98L838.69 346.98" stroke="hsl(341.4, 100%, 65%)" stroke-width="1.5"></path><path d="M838.69 346.98L993.72 409.27" stroke="hsl(341.4, 100%, 65%)" stroke-width="1.5"></path><path d="M838.69 346.98L939.84 516.03" stroke="hsl(341.4, 100%, 65%)" stroke-width="1.5"></path><path d="M838.69 346.98L820.06 558.47" stroke="hsl(341.4, 100%, 65%)" stroke-width="1.5"></path><path d="M820.06 558.47L820.06 558.47" stroke="hsl(341.4, 100%, 65%)" stroke-width="1.5"></path><path d="M820.06 558.47L939.84 516.03" stroke="hsl(341.4, 100%, 65%)" stroke-width="1.5"></path><path d="M820.06 558.47L981.49 675.69" stroke="hsl(341.4, 100%, 65%)" stroke-width="1.5"></path><path d="M820.06 558.47L993.72 409.27" stroke="hsl(341.4, 100%, 65%)" stroke-width="1.5"></path><path d="M993.72 409.27L993.72 409.27" stroke="hsl(341.4, 100%, 65%)" stroke-width="1.5"></path><path d="M993.72 409.27L939.84 516.03" stroke="hsl(341.4, 100%, 65%)" stroke-width="1.5"></path><path d="M993.72 409.27L1110.09 362.79" stroke="hsl(341.4, 100%, 65%)" stroke-width="1.5"></path><path d="M993.72 409.27L1097.62 502.66" stroke="hsl(341.4, 100%, 65%)" stroke-width="1.5"></path><path d="M993.72 409.27L1130.65 255.91" stroke="hsl(341.4, 100%, 65%)" stroke-width="1.5"></path><path d="M939.84 516.03L939.84 516.03" stroke="hsl(341.4, 100%, 65%)" stroke-width="1.5"></path><path d="M981.49 675.69L981.49 675.69" stroke="hsl(341.4, 100%, 65%)" stroke-width="1.5"></path><path d="M981.49 675.69L939.84 516.03" stroke="hsl(341.4, 100%, 65%)" stroke-width="1.5"></path><path d="M981.49 675.69L1097.62 502.66" stroke="hsl(341.4, 100%, 65%)" stroke-width="1.5"></path><path d="M1159 -112.25L1159 -112.25" stroke="hsl(341.4, 100%, 65%)" stroke-width="1.5"></path><path d="M1159 -112.25L1274.14 -61.51" stroke="hsl(341.4, 100%, 65%)" stroke-width="1.5"></path><path d="M1159 -112.25L1286.65 43.5" stroke="hsl(341.4, 100%, 65%)" stroke-width="1.5"></path><path d="M1159 -112.25L1151.33 112.21" stroke="hsl(341.4, 100%, 65%)" stroke-width="1.5"></path><path d="M1159 -112.25L1393.01 -81.83" stroke="hsl(341.4, 100%, 65%)" stroke-width="1.5"></path><path d="M1159 -112.25L1388.68 60.97" stroke="hsl(341.4, 100%, 65%)" stroke-width="1.5"></path><path d="M1151.33 112.21L1151.33 112.21" stroke="hsl(341.4, 100%, 65%)" stroke-width="1.5"></path><path d="M1110.09 362.79L1110.09 362.79" stroke="hsl(341.4, 100%, 65%)" stroke-width="1.5"></path><path d="M1097.62 502.66L1097.62 502.66" stroke="hsl(341.4, 100%, 65%)" stroke-width="1.5"></path><path d="M1097.62 502.66L1110.09 362.79" stroke="hsl(341.4, 100%, 65%)" stroke-width="1.5"></path><path d="M1097.62 502.66L939.84 516.03" stroke="hsl(341.4, 100%, 65%)" stroke-width="1.5"></path><path d="M1097.62 502.66L1301.04 517.82" stroke="hsl(341.4, 100%, 65%)" stroke-width="1.5"></path><path d="M1274.14 -61.51L1274.14 -61.51" stroke="hsl(341.4, 100%, 65%)" stroke-width="1.5"></path><path d="M1274.14 -61.51L1286.65 43.5" stroke="hsl(341.4, 100%, 65%)" stroke-width="1.5"></path><path d="M1274.14 -61.51L1393.01 -81.83" stroke="hsl(341.4, 100%, 65%)" stroke-width="1.5"></path><path d="M1286.65 43.5L1286.65 43.5" stroke="hsl(341.4, 100%, 65%)" stroke-width="1.5"></path><path d="M1286.65 43.5L1151.33 112.21" stroke="hsl(341.4, 100%, 65%)" stroke-width="1.5"></path><path d="M1286.65 43.5L1393.01 -81.83" stroke="hsl(341.4, 100%, 65%)" stroke-width="1.5"></path><path d="M1262.25 253.59L1262.25 253.59" stroke="hsl(341.4, 100%, 65%)" stroke-width="1.5"></path><path d="M1262.25 253.59L1271.99 350.12" stroke="hsl(341.4, 100%, 65%)" stroke-width="1.5"></path><path d="M1262.25 253.59L1151.33 112.21" stroke="hsl(341.4, 100%, 65%)" stroke-width="1.5"></path><path d="M1262.25 253.59L1401.22 373.09" stroke="hsl(341.4, 100%, 65%)" stroke-width="1.5"></path><path d="M1271.99 350.12L1271.99 350.12" stroke="hsl(341.4, 100%, 65%)" stroke-width="1.5"></path><path d="M1271.99 350.12L1401.22 373.09" stroke="hsl(341.4, 100%, 65%)" stroke-width="1.5"></path><path d="M1271.99 350.12L1110.09 362.79" stroke="hsl(341.4, 100%, 65%)" stroke-width="1.5"></path><path d="M1393.01 -81.83L1393.01 -81.83" stroke="hsl(341.4, 100%, 65%)" stroke-width="1.5"></path><path d="M1393.01 -81.83L1562.55 99.66" stroke="hsl(341.4, 100%, 65%)" stroke-width="1.5"></path><path d="M1393.01 -81.83L1449.08 201.09" stroke="hsl(341.4, 100%, 65%)" stroke-width="1.5"></path><path d="M1449.08 201.09L1449.08 201.09" stroke="hsl(341.4, 100%, 65%)" stroke-width="1.5"></path><path d="M1449.08 201.09L1561.51 199.6" stroke="hsl(341.4, 100%, 65%)" stroke-width="1.5"></path><path d="M1449.08 201.09L1562.55 99.66" stroke="hsl(341.4, 100%, 65%)" stroke-width="1.5"></path><path d="M1449.08 201.09L1401.22 373.09" stroke="hsl(341.4, 100%, 65%)" stroke-width="1.5"></path><path d="M1449.08 201.09L1262.25 253.59" stroke="hsl(341.4, 100%, 65%)" stroke-width="1.5"></path><path d="M1401.22 373.09L1401.22 373.09" stroke="hsl(341.4, 100%, 65%)" stroke-width="1.5"></path><path d="M1401.22 373.09L1555.12 383.55" stroke="hsl(341.4, 100%, 65%)" stroke-width="1.5"></path><path d="M1401.22 373.09L1404.83 539.65" stroke="hsl(341.4, 100%, 65%)" stroke-width="1.5"></path><path d="M1562.55 99.66L1562.55 99.66" stroke="hsl(341.4, 100%, 65%)" stroke-width="1.5"></path><path d="M1562.55 99.66L1561.51 199.6" stroke="hsl(341.4, 100%, 65%)" stroke-width="1.5"></path><path d="M1561.51 199.6L1561.51 199.6" stroke="hsl(341.4, 100%, 65%)" stroke-width="1.5"></path><path d="M1561.51 199.6L1555.12 383.55" stroke="hsl(341.4, 100%, 65%)" stroke-width="1.5"></path><path d="M1561.51 199.6L1388.68 60.97" stroke="hsl(341.4, 100%, 65%)" stroke-width="1.5"></path><path d="M1561.51 199.6L1401.22 373.09" stroke="hsl(341.4, 100%, 65%)" stroke-width="1.5"></path><path d="M1555.12 383.55L1555.12 383.55" stroke="hsl(341.4, 100%, 65%)" stroke-width="1.5"></path><circle r="25" cx="393.64" cy="663.49" fill="url(&quot;#SvgjsRadialGradient1011&quot;)"></circle><circle r="25" cx="836.65" cy="650.21" fill="url(&quot;#SvgjsRadialGradient1011&quot;)"></circle><circle r="25" cx="1130.65" cy="255.91" fill="url(&quot;#SvgjsRadialGradient1011&quot;)"></circle><circle r="25" cx="1137.09" cy="661.69" fill="url(&quot;#SvgjsRadialGradient1011&quot;)"></circle><circle r="25" cx="1301.04" cy="517.82" fill="url(&quot;#SvgjsRadialGradient1011&quot;)"></circle><circle r="25" cx="1247" cy="690.65" fill="url(&quot;#SvgjsRadialGradient1011&quot;)"></circle><circle r="25" cx="1388.68" cy="60.97" fill="url(&quot;#SvgjsRadialGradient1011&quot;)"></circle><circle r="25" cx="1404.83" cy="539.65" fill="url(&quot;#SvgjsRadialGradient1011&quot;)"></circle><circle r="25" cx="1408.85" cy="702.23" fill="url(&quot;#SvgjsRadialGradient1011&quot;)"></circle><circle r="25" cx="1591.35" cy="507.78" fill="url(&quot;#SvgjsRadialGradient1011&quot;)"></circle><circle r="5" cx="-110.14" cy="539.81" fill="#ff80a7"></circle><circle r="5" cx="-49.22" cy="701.6" fill="#ff80a7"></circle><circle r="5" cx="69.61" cy="712.4" fill="#ff80a7"></circle><circle r="5" cx="209.32" cy="517.88" fill="#ff80a7"></circle><circle r="5" cx="525.68" cy="502.22" fill="#ff80a7"></circle><circle r="5" cx="495.97" cy="651.12" fill="#ff80a7"></circle><circle r="5" cx="649.02" cy="695.63" fill="#ff80a7"></circle><circle r="5" cx="838.69" cy="346.98" fill="#ff80a7"></circle><circle r="5" cx="820.06" cy="558.47" fill="#ff80a7"></circle><circle r="5" cx="993.72" cy="409.27" fill="#ff80a7"></circle><circle r="5" cx="939.84" cy="516.03" fill="#ff80a7"></circle><circle r="5" cx="981.49" cy="675.69" fill="#ff80a7"></circle><circle r="5" cx="1159" cy="-112.25" fill="#ff80a7"></circle><circle r="5" cx="1151.33" cy="112.21" fill="#ff80a7"></circle><circle r="5" cx="1110.09" cy="362.79" fill="#ff80a7"></circle><circle r="5" cx="1097.62" cy="502.66" fill="#ff80a7"></circle><circle r="5" cx="1274.14" cy="-61.51" fill="#ff80a7"></circle><circle r="5" cx="1286.65" cy="43.5" fill="#ff80a7"></circle><circle r="5" cx="1262.25" cy="253.59" fill="#ff80a7"></circle><circle r="5" cx="1271.99" cy="350.12" fill="#ff80a7"></circle><circle r="5" cx="1393.01" cy="-81.83" fill="#ff80a7"></circle><circle r="5" cx="1449.08" cy="201.09" fill="#ff80a7"></circle><circle r="5" cx="1401.22" cy="373.09" fill="#ff80a7"></circle><circle r="5" cx="1562.55" cy="99.66" fill="#ff80a7"></circle><circle r="5" cx="1561.51" cy="199.6" fill="#ff80a7"></circle><circle r="5" cx="1555.12" cy="383.55" fill="#ff80a7"></circle></g><defs><mask id="SvgjsMask1010"><rect width="1440" height="560" fill="#ffffff"></rect></mask><radialGradient id="SvgjsRadialGradient1011"><stop stop-color="#ffffff" offset="0.1"></stop><stop stop-color="rgba(255, 0, 79, 1)" offset="0.2"></stop><stop stop-color="rgba(255, 0, 79, 0)" offset="1"></stop></radialGradient></defs></svg>