<svg id="visual" viewBox="0 0 900 600" width="900" height="600" xmlns="http://www.w3.org/2000/svg" xmlns:xlink="http://www.w3.org/1999/xlink" version="1.1"><rect x="0" y="0" width="900" height="600" fill="#000e15"></rect><path d="M0 450L21.5 457.3C43 464.7 86 479.3 128.8 468.5C171.7 457.7 214.3 421.3 257.2 413.5C300 405.7 343 426.3 385.8 443.7C428.7 461 471.3 475 514.2 482.2C557 489.3 600 489.7 642.8 488.8C685.7 488 728.3 486 771.2 483.7C814 481.3 857 478.7 878.5 477.3L900 476L900 601L878.5 601C857 601 814 601 771.2 601C728.3 601 685.7 601 642.8 601C600 601 557 601 514.2 601C471.3 601 428.7 601 385.8 601C343 601 300 601 257.2 601C214.3 601 171.7 601 128.8 601C86 601 43 601 21.5 601L0 601Z" fill="#88002b" stroke-linecap="round" stroke-linejoin="miter"></path></svg>